<mxfile host="app.diagrams.net" agent="Mozilla/5.0 (Windows NT 10.0; Win64; x64) AppleWebKit/537.36 (KHTML, like Gecko) Chrome/126.0.0.0 YaBrowser/24.7.0.0 Safari/537.36" version="24.7.17">
  <diagram name="Страница — 1" id="xwuOwH4TvjDa2uig1lpM">
    <mxGraphModel grid="1" page="1" gridSize="10" guides="1" tooltips="1" connect="1" arrows="1" fold="1" pageScale="1" pageWidth="827" pageHeight="1169" math="0" shadow="0">
      <root>
        <mxCell id="0" />
        <mxCell id="1" parent="0" />
        <mxCell id="kpbq2rMiD-oukpvBsijn-144" value="" style="shape=table;startSize=0;container=1;collapsible=0;childLayout=tableLayout;" vertex="1" parent="1">
          <mxGeometry x="50" y="30" width="600" height="860" as="geometry" />
        </mxCell>
        <mxCell id="kpbq2rMiD-oukpvBsijn-145" value="" style="shape=tableRow;horizontal=0;startSize=0;swimlaneHead=0;swimlaneBody=0;strokeColor=inherit;top=0;left=0;bottom=0;right=0;collapsible=0;dropTarget=0;fillColor=none;points=[[0,0.5],[1,0.5]];portConstraint=eastwest;" vertex="1" parent="kpbq2rMiD-oukpvBsijn-144">
          <mxGeometry width="600" height="40" as="geometry" />
        </mxCell>
        <mxCell id="kpbq2rMiD-oukpvBsijn-146" value="&lt;b&gt;Заголовок&lt;/b&gt;" style="shape=partialRectangle;html=1;whiteSpace=wrap;connectable=0;strokeColor=inherit;overflow=hidden;fillColor=none;top=0;left=0;bottom=0;right=0;pointerEvents=1;" vertex="1" parent="kpbq2rMiD-oukpvBsijn-145">
          <mxGeometry width="160" height="40" as="geometry">
            <mxRectangle width="160" height="40" as="alternateBounds" />
          </mxGeometry>
        </mxCell>
        <mxCell id="kpbq2rMiD-oukpvBsijn-147" value="Просмотр текста песни в мобильном приложении" style="shape=partialRectangle;html=1;whiteSpace=wrap;connectable=0;strokeColor=inherit;overflow=hidden;fillColor=none;top=0;left=0;bottom=0;right=0;pointerEvents=1;spacingLeft=7;spacingRight=7;" vertex="1" parent="kpbq2rMiD-oukpvBsijn-145">
          <mxGeometry x="160" width="440" height="40" as="geometry">
            <mxRectangle width="440" height="40" as="alternateBounds" />
          </mxGeometry>
        </mxCell>
        <mxCell id="kpbq2rMiD-oukpvBsijn-148" value="" style="shape=tableRow;horizontal=0;startSize=0;swimlaneHead=0;swimlaneBody=0;strokeColor=inherit;top=0;left=0;bottom=0;right=0;collapsible=0;dropTarget=0;fillColor=none;points=[[0,0.5],[1,0.5]];portConstraint=eastwest;" vertex="1" parent="kpbq2rMiD-oukpvBsijn-144">
          <mxGeometry y="40" width="600" height="50" as="geometry" />
        </mxCell>
        <mxCell id="kpbq2rMiD-oukpvBsijn-149" value="&lt;b&gt;Акторы&lt;/b&gt;" style="shape=partialRectangle;html=1;whiteSpace=wrap;connectable=0;strokeColor=inherit;overflow=hidden;fillColor=none;top=0;left=0;bottom=0;right=0;pointerEvents=1;" vertex="1" parent="kpbq2rMiD-oukpvBsijn-148">
          <mxGeometry width="160" height="50" as="geometry">
            <mxRectangle width="160" height="50" as="alternateBounds" />
          </mxGeometry>
        </mxCell>
        <mxCell id="kpbq2rMiD-oukpvBsijn-150" value="Пользователь приложения&lt;div&gt;&lt;br&gt;&lt;/div&gt;" style="shape=partialRectangle;html=1;whiteSpace=wrap;connectable=0;strokeColor=inherit;overflow=hidden;fillColor=none;top=0;left=0;bottom=0;right=0;pointerEvents=1;spacingLeft=7;spacingRight=7;" vertex="1" parent="kpbq2rMiD-oukpvBsijn-148">
          <mxGeometry x="160" width="440" height="50" as="geometry">
            <mxRectangle width="440" height="50" as="alternateBounds" />
          </mxGeometry>
        </mxCell>
        <mxCell id="kpbq2rMiD-oukpvBsijn-151" value="" style="shape=tableRow;horizontal=0;startSize=0;swimlaneHead=0;swimlaneBody=0;strokeColor=inherit;top=0;left=0;bottom=0;right=0;collapsible=0;dropTarget=0;fillColor=none;points=[[0,0.5],[1,0.5]];portConstraint=eastwest;" vertex="1" parent="kpbq2rMiD-oukpvBsijn-144">
          <mxGeometry y="90" width="600" height="70" as="geometry" />
        </mxCell>
        <mxCell id="kpbq2rMiD-oukpvBsijn-152" value="&lt;b&gt;Предусловие&lt;/b&gt;" style="shape=partialRectangle;html=1;whiteSpace=wrap;connectable=0;strokeColor=inherit;overflow=hidden;fillColor=none;top=0;left=0;bottom=0;right=0;pointerEvents=1;" vertex="1" parent="kpbq2rMiD-oukpvBsijn-151">
          <mxGeometry width="160" height="70" as="geometry">
            <mxRectangle width="160" height="70" as="alternateBounds" />
          </mxGeometry>
        </mxCell>
        <mxCell id="kpbq2rMiD-oukpvBsijn-153" value="1.Клиент зарегистрирован и авторизован в приложении&lt;div&gt;2.Наличие интернет соединения&lt;/div&gt;" style="shape=partialRectangle;html=1;whiteSpace=wrap;connectable=0;strokeColor=inherit;overflow=hidden;fillColor=none;top=0;left=0;bottom=0;right=0;pointerEvents=1;spacingLeft=7;spacingRight=7;" vertex="1" parent="kpbq2rMiD-oukpvBsijn-151">
          <mxGeometry x="160" width="440" height="70" as="geometry">
            <mxRectangle width="440" height="70" as="alternateBounds" />
          </mxGeometry>
        </mxCell>
        <mxCell id="kpbq2rMiD-oukpvBsijn-154" value="" style="shape=tableRow;horizontal=0;startSize=0;swimlaneHead=0;swimlaneBody=0;strokeColor=inherit;top=0;left=0;bottom=0;right=0;collapsible=0;dropTarget=0;fillColor=none;points=[[0,0.5],[1,0.5]];portConstraint=eastwest;" vertex="1" parent="kpbq2rMiD-oukpvBsijn-144">
          <mxGeometry y="160" width="600" height="60" as="geometry" />
        </mxCell>
        <mxCell id="kpbq2rMiD-oukpvBsijn-155" value="&lt;b&gt;Ограничения&lt;/b&gt;" style="shape=partialRectangle;html=1;whiteSpace=wrap;connectable=0;strokeColor=inherit;overflow=hidden;fillColor=none;top=0;left=0;bottom=0;right=0;pointerEvents=1;" vertex="1" parent="kpbq2rMiD-oukpvBsijn-154">
          <mxGeometry width="160" height="60" as="geometry">
            <mxRectangle width="160" height="60" as="alternateBounds" />
          </mxGeometry>
        </mxCell>
        <mxCell id="kpbq2rMiD-oukpvBsijn-156" value="1.Просмотр текста возможен только у песни которая воспроизводится" style="shape=partialRectangle;html=1;whiteSpace=wrap;connectable=0;strokeColor=inherit;overflow=hidden;fillColor=none;top=0;left=0;bottom=0;right=0;pointerEvents=1;spacingLeft=7;spacingRight=7;" vertex="1" parent="kpbq2rMiD-oukpvBsijn-154">
          <mxGeometry x="160" width="440" height="60" as="geometry">
            <mxRectangle width="440" height="60" as="alternateBounds" />
          </mxGeometry>
        </mxCell>
        <mxCell id="kpbq2rMiD-oukpvBsijn-157" value="" style="shape=tableRow;horizontal=0;startSize=0;swimlaneHead=0;swimlaneBody=0;strokeColor=inherit;top=0;left=0;bottom=0;right=0;collapsible=0;dropTarget=0;fillColor=none;points=[[0,0.5],[1,0.5]];portConstraint=eastwest;" vertex="1" parent="kpbq2rMiD-oukpvBsijn-144">
          <mxGeometry y="220" width="600" height="40" as="geometry" />
        </mxCell>
        <mxCell id="kpbq2rMiD-oukpvBsijn-158" value="&lt;b&gt;Триггер&lt;/b&gt;" style="shape=partialRectangle;html=1;whiteSpace=wrap;connectable=0;strokeColor=inherit;overflow=hidden;fillColor=none;top=0;left=0;bottom=0;right=0;pointerEvents=1;" vertex="1" parent="kpbq2rMiD-oukpvBsijn-157">
          <mxGeometry width="160" height="40" as="geometry">
            <mxRectangle width="160" height="40" as="alternateBounds" />
          </mxGeometry>
        </mxCell>
        <mxCell id="kpbq2rMiD-oukpvBsijn-159" value="1.Пользователь нажимает на нижнюю часть экрана&lt;div&gt;2. Пользователь делает свайп вверх&lt;/div&gt;" style="shape=partialRectangle;html=1;whiteSpace=wrap;connectable=0;strokeColor=inherit;overflow=hidden;fillColor=none;top=0;left=0;bottom=0;right=0;pointerEvents=1;spacingLeft=7;spacingRight=7;" vertex="1" parent="kpbq2rMiD-oukpvBsijn-157">
          <mxGeometry x="160" width="440" height="40" as="geometry">
            <mxRectangle width="440" height="40" as="alternateBounds" />
          </mxGeometry>
        </mxCell>
        <mxCell id="kpbq2rMiD-oukpvBsijn-160" value="" style="shape=tableRow;horizontal=0;startSize=0;swimlaneHead=0;swimlaneBody=0;strokeColor=inherit;top=0;left=0;bottom=0;right=0;collapsible=0;dropTarget=0;fillColor=none;points=[[0,0.5],[1,0.5]];portConstraint=eastwest;" vertex="1" parent="kpbq2rMiD-oukpvBsijn-144">
          <mxGeometry y="260" width="600" height="240" as="geometry" />
        </mxCell>
        <mxCell id="kpbq2rMiD-oukpvBsijn-161" value="&lt;b&gt;Основной сценарий&lt;/b&gt;" style="shape=partialRectangle;html=1;whiteSpace=wrap;connectable=0;strokeColor=inherit;overflow=hidden;fillColor=none;top=0;left=0;bottom=0;right=0;pointerEvents=1;" vertex="1" parent="kpbq2rMiD-oukpvBsijn-160">
          <mxGeometry width="160" height="240" as="geometry">
            <mxRectangle width="160" height="240" as="alternateBounds" />
          </mxGeometry>
        </mxCell>
        <mxCell id="kpbq2rMiD-oukpvBsijn-162" value="&lt;ol style=&quot;&quot;&gt;&lt;li&gt;Система отображает плеер с проигрываемой композицией (экран 1)&lt;/li&gt;&lt;li&gt;Пользователь делает свайп или жмет на экран&lt;/li&gt;&lt;li&gt;Система отображает экран с частью текста песни (экран 2)&lt;/li&gt;&lt;li&gt;Пользователь&amp;nbsp;жмет на кнопку просмотра полного текста&lt;/li&gt;&lt;li&gt;Система отображает экран просмотра полного текста (экран 3)&lt;/li&gt;&lt;li&gt;Пользователь скролит текст до нужного ему момента&lt;/li&gt;&lt;/ol&gt;&lt;span style=&quot;background-color: initial;&quot;&gt;&lt;div style=&quot;&quot;&gt;&lt;b style=&quot;font-weight: bold; background-color: initial;&quot;&gt;&lt;span style=&quot;white-space: pre;&quot;&gt;&#x9;&lt;/span&gt;&lt;/b&gt;&lt;b style=&quot;font-weight: bold; background-color: initial;&quot;&gt;Критерий успеха:&amp;nbsp;&lt;/b&gt;&lt;span style=&quot;background-color: initial;&quot;&gt;Пользователь попал на экран с полным текстом песни.&lt;/span&gt;&lt;b style=&quot;background-color: initial;&quot;&gt;&amp;nbsp;&amp;nbsp;&lt;/b&gt;&lt;/div&gt;&lt;/span&gt;" style="shape=partialRectangle;html=1;whiteSpace=wrap;connectable=0;strokeColor=inherit;overflow=hidden;fillColor=none;top=0;left=0;bottom=0;right=0;pointerEvents=1;spacingLeft=7;spacingRight=7;align=left;" vertex="1" parent="kpbq2rMiD-oukpvBsijn-160">
          <mxGeometry x="160" width="440" height="240" as="geometry">
            <mxRectangle width="440" height="240" as="alternateBounds" />
          </mxGeometry>
        </mxCell>
        <mxCell id="kpbq2rMiD-oukpvBsijn-163" value="" style="shape=tableRow;horizontal=0;startSize=0;swimlaneHead=0;swimlaneBody=0;strokeColor=inherit;top=0;left=0;bottom=0;right=0;collapsible=0;dropTarget=0;fillColor=none;points=[[0,0.5],[1,0.5]];portConstraint=eastwest;" vertex="1" parent="kpbq2rMiD-oukpvBsijn-144">
          <mxGeometry y="500" width="600" height="100" as="geometry" />
        </mxCell>
        <mxCell id="kpbq2rMiD-oukpvBsijn-164" value="&lt;b&gt;Альтернативный сценарий&lt;/b&gt;" style="shape=partialRectangle;html=1;whiteSpace=wrap;connectable=0;strokeColor=inherit;overflow=hidden;fillColor=none;top=0;left=0;bottom=0;right=0;pointerEvents=1;" vertex="1" parent="kpbq2rMiD-oukpvBsijn-163">
          <mxGeometry width="160" height="100" as="geometry">
            <mxRectangle width="160" height="100" as="alternateBounds" />
          </mxGeometry>
        </mxCell>
        <mxCell id="kpbq2rMiD-oukpvBsijn-165" value="" style="shape=partialRectangle;html=1;whiteSpace=wrap;connectable=0;strokeColor=inherit;overflow=hidden;fillColor=none;top=0;left=0;bottom=0;right=0;pointerEvents=1;align=left;spacingLeft=7;spacingRight=7;" vertex="1" parent="kpbq2rMiD-oukpvBsijn-163">
          <mxGeometry x="160" width="440" height="100" as="geometry">
            <mxRectangle width="440" height="100" as="alternateBounds" />
          </mxGeometry>
        </mxCell>
        <mxCell id="kpbq2rMiD-oukpvBsijn-166" value="" style="shape=tableRow;horizontal=0;startSize=0;swimlaneHead=0;swimlaneBody=0;strokeColor=inherit;top=0;left=0;bottom=0;right=0;collapsible=0;dropTarget=0;fillColor=none;points=[[0,0.5],[1,0.5]];portConstraint=eastwest;" vertex="1" parent="kpbq2rMiD-oukpvBsijn-144">
          <mxGeometry y="600" width="600" height="100" as="geometry" />
        </mxCell>
        <mxCell id="kpbq2rMiD-oukpvBsijn-167" value="&lt;b&gt;Исключительный сценарий&lt;/b&gt;" style="shape=partialRectangle;html=1;whiteSpace=wrap;connectable=0;strokeColor=inherit;overflow=hidden;fillColor=none;top=0;left=0;bottom=0;right=0;pointerEvents=1;" vertex="1" parent="kpbq2rMiD-oukpvBsijn-166">
          <mxGeometry width="160" height="100" as="geometry">
            <mxRectangle width="160" height="100" as="alternateBounds" />
          </mxGeometry>
        </mxCell>
        <mxCell id="kpbq2rMiD-oukpvBsijn-168" value="&lt;div style=&quot;text-align: left;&quot;&gt;3а. Система отображает экран с сообщением что текст отсутствует.&lt;br&gt;&lt;/div&gt;" style="shape=partialRectangle;html=1;whiteSpace=wrap;connectable=0;strokeColor=inherit;overflow=hidden;fillColor=none;top=0;left=0;bottom=0;right=0;pointerEvents=1;spacingLeft=7;spacingRight=7;" vertex="1" parent="kpbq2rMiD-oukpvBsijn-166">
          <mxGeometry x="160" width="440" height="100" as="geometry">
            <mxRectangle width="440" height="100" as="alternateBounds" />
          </mxGeometry>
        </mxCell>
        <mxCell id="kpbq2rMiD-oukpvBsijn-169" value="" style="shape=tableRow;horizontal=0;startSize=0;swimlaneHead=0;swimlaneBody=0;strokeColor=inherit;top=0;left=0;bottom=0;right=0;collapsible=0;dropTarget=0;fillColor=none;points=[[0,0.5],[1,0.5]];portConstraint=eastwest;" vertex="1" parent="kpbq2rMiD-oukpvBsijn-144">
          <mxGeometry y="700" width="600" height="160" as="geometry" />
        </mxCell>
        <mxCell id="kpbq2rMiD-oukpvBsijn-170" value="&lt;b&gt;Исключительный сценарий&lt;/b&gt;" style="shape=partialRectangle;html=1;whiteSpace=wrap;connectable=0;strokeColor=inherit;overflow=hidden;fillColor=none;top=0;left=0;bottom=0;right=0;pointerEvents=1;" vertex="1" parent="kpbq2rMiD-oukpvBsijn-169">
          <mxGeometry width="160" height="160" as="geometry">
            <mxRectangle width="160" height="160" as="alternateBounds" />
          </mxGeometry>
        </mxCell>
        <mxCell id="kpbq2rMiD-oukpvBsijn-171" value="&lt;div style=&quot;text-align: left;&quot;&gt;6а. Пользователь видит что текст не соответствует песне&lt;/div&gt;&lt;div style=&quot;text-align: left;&quot;&gt;7а. Пользователь жмет на кнопку репорта&lt;/div&gt;&lt;div style=&quot;text-align: left;&quot;&gt;8а. Система отображает экран отправки сообщения об ошибке&lt;/div&gt;&lt;div style=&quot;text-align: left;&quot;&gt;9а. Пользователь вводит сообщение и жмет кнопку отправить&lt;/div&gt;&lt;div style=&quot;text-align: left;&quot;&gt;10а.&amp;nbsp; Система сохраняет сообщение об ошибке и возращает пользователя на экран 1.&lt;/div&gt;&lt;div style=&quot;text-align: left;&quot;&gt;&lt;b style=&quot;background-color: initial;&quot;&gt;Критерий успеха: &lt;/b&gt;&lt;span style=&quot;background-color: initial;&quot;&gt;сообщение об ошибке сохранено и отправлено службе поддержки.&lt;/span&gt;&lt;br&gt;&lt;/div&gt;&lt;div style=&quot;text-align: left;&quot;&gt;&lt;br&gt;&lt;/div&gt;" style="shape=partialRectangle;html=1;whiteSpace=wrap;connectable=0;strokeColor=inherit;overflow=hidden;fillColor=none;top=0;left=0;bottom=0;right=0;pointerEvents=1;spacingLeft=7;spacingRight=7;" vertex="1" parent="kpbq2rMiD-oukpvBsijn-169">
          <mxGeometry x="160" width="440" height="160" as="geometry">
            <mxRectangle width="440" height="160" as="alternateBounds" />
          </mxGeometry>
        </mxCell>
      </root>
    </mxGraphModel>
  </diagram>
</mxfile>
